<svg width="97" height="48" viewBox="0 0 97 48" fill="none" xmlns="http://www.w3.org/2000/svg">
<g clip-path="url(#clip0_583_26599)">
<path d="M8.14374 31.7777C6.60409 31.0561 5.34059 30.4725 5.34059 29.2976C5.34059 28.3988 6.06222 27.7449 7.48203 27.7449C8.00306 27.7449 8.43291 27.8048 8.87318 27.8882C9.10504 27.9273 9.34992 27.9611 9.55573 27.9611C10.7958 27.9611 11.4992 27.2213 11.9629 25.8145L12.1557 25.2414C11.9551 25.1632 9.93087 24.2722 7.28664 24.2722C3.07931 24.2722 0.857116 26.9712 0.857116 29.7665C0.857116 31.1811 1.3026 32.2049 1.99036 33.0099C2.88132 34.0468 4.15524 34.7241 5.3458 35.3025C7.07823 36.1544 8.64393 36.7822 8.64393 38.0431C8.64393 39.1607 7.48724 39.7964 5.94238 39.7964C3.82699 39.7964 1.97473 38.5876 1.74026 38.4417L0.00262451 41.6981C0.312638 41.8727 2.55047 43.2977 6.23676 43.2977C10.1601 43.2951 13.1326 41.0416 13.1326 37.5794C13.1326 34.1171 10.379 32.8536 8.14634 31.7751L8.14374 31.7777Z" fill="#CE0E2D"/>
<path d="M23.4985 33.3851L30.6184 24.6552H25.5436L19.8643 32.1867H19.7783V24.6552H15.5997V43.1518H15.8446C17.6577 43.1518 19.8044 42.3156 19.8044 39.2936V35.0446H19.8904L25.679 42.92H31.0014L23.4933 33.3851H23.4985Z" fill="#CE0E2D"/>
<path d="M30.8555 4.84039C29.3835 5.11914 27.203 6.45559 27.2082 8.81847C27.2134 10.9651 28.9693 12.2651 28.9719 15.0787C28.9823 17.194 27.8152 18.6165 26.5569 19.4084C27.065 19.3615 27.6225 19.3329 28.2373 19.3329C29.5268 19.3277 30.3006 19.4527 30.3501 19.4605L36.9541 11.3559C35.1201 8.61266 32.9787 6.47904 30.8528 4.84039H30.8555Z" fill="#CE0E2D"/>
<path d="M36.4044 26.7315C37.2355 25.4367 37.3397 23.3761 37.41 21.2711C37.4882 19.312 37.8972 17.8375 40.5206 17.8271C41.0989 17.8271 41.6538 17.9052 42.6568 17.9026C46.4968 17.887 49.003 16.5636 50.5661 15.6961C47.3773 13.664 42.7245 11.5877 36.9541 11.3533C36.579 12.4136 33.6534 20.5469 33.4319 21.2008C33.4658 21.2398 33.9764 21.8182 34.6173 22.9358C35.5604 24.4728 36.0658 25.7754 36.4044 26.7263V26.7315Z" fill="#CE0E2D"/>
<path d="M22.4538 20.091C22.1204 20.091 21.9536 19.8695 21.9067 19.484C21.8651 19.1036 20.2134 3.98589 19.9685 1.70117C19.932 1.36511 19.8487 0.7555 19.8461 0.534062C19.8461 0.182366 20.0753 5.07243e-06 20.3463 5.07243e-06C21.1304 -0.00260008 25.3951 0.99778 29.9228 4.16825C28.6202 4.53558 26.2574 5.89287 26.2652 8.70123C26.2756 11.1892 28.0549 12.5569 28.0653 15.05C28.0784 19.1062 23.4151 20.0884 22.4512 20.091H22.4538Z" fill="#EE7623"/>
<path d="M36.7822 27.81C36.8551 27.9976 36.9229 28.1565 36.988 28.2659C37.0922 28.4457 37.2303 28.5213 37.3944 28.5213C37.4986 28.5213 37.6289 28.4848 37.7721 28.4197C38.1212 28.2633 51.9155 21.839 53.9945 20.8803C54.2967 20.7318 54.8672 20.4765 55.0548 20.3671C55.2527 20.2551 55.3387 20.0936 55.3387 19.9294C55.3387 19.8357 55.3101 19.7419 55.258 19.6585C54.9974 19.2391 53.661 17.8219 51.431 16.2744C49.6621 17.2513 46.8954 18.7571 42.7793 18.7754C41.7685 18.7754 41.5418 18.705 40.854 18.7102C38.8429 18.7154 38.3427 19.5778 38.2697 21.3362C38.2567 21.6723 38.2489 22.1178 38.2333 22.6075C38.1681 24.1837 37.9806 26.3538 36.777 27.8074L36.7822 27.81Z" fill="#EE7623"/>
<path d="M81.4737 36.7483C81.4737 35.5838 82.2943 34.5027 83.4354 34.5027C84.7171 34.5027 85.4231 35.6177 85.4465 36.7483H81.4763H81.4737ZM83.4744 32.5514C80.9865 32.5514 78.892 34.5782 78.892 37.8868C78.892 41.1953 80.924 43.2013 83.9694 43.2013C86.3818 43.2013 87.6349 42.141 87.7834 42.0446C87.7834 42.0446 87.5463 41.6591 87.4812 41.5549C87.1425 41 86.7543 40.8176 86.3271 40.8176C85.4752 40.8176 85.3606 41.1745 84.2039 41.1745C82.2135 41.1745 81.5258 39.6218 81.4763 38.5902H88.1325V37.8138C88.1325 34.6434 86.3062 32.5488 83.4718 32.5488" fill="#EE7623"/>
<path d="M67.7575 36.0528V42.9721H70.3548V35.787C70.4955 35.6542 71.4177 34.771 72.4416 34.771C73.778 34.771 74.471 35.7375 74.471 36.9984V42.9721H77.0605V36.3524C77.0605 33.2079 74.6455 32.5124 73.2908 32.5124C71.6704 32.5124 70.5164 33.531 70.1725 33.8801C70.0604 33.4528 69.5655 32.7364 68.4348 32.7364C68.0336 32.7364 67.5126 32.8536 67.4605 32.8667C67.5413 33.26 67.7549 34.1875 67.7549 36.0502L67.7575 36.0528Z" fill="#EE7623"/>
<path d="M93.5017 39.739V34.6929H95.6718L96.4299 32.739H93.5017V29.6884C93.5017 29.6884 93.2672 29.6857 93.2594 29.6884C92.1053 29.6884 90.9069 30.1781 90.9069 32.7129V32.739H88.9895V34.6929H90.9069V40.643C90.9069 42.3234 91.9021 43.1987 93.3141 43.1987C94.4578 43.1987 95.9323 42.8496 95.9323 40.5883C95.8411 40.6456 95.2914 41.0025 94.6818 41.0025C93.8377 41.0025 93.5043 40.4867 93.5043 39.739H93.5017Z" fill="#EE7623"/>
<path d="M44.4075 43.1883C42.7402 43.1883 41.4793 42.7428 40.6431 42.2322L41.4793 40.3408C42.2452 40.8566 43.2013 41.2552 44.2173 41.2552C45.2334 41.2552 45.9472 40.815 45.9472 40.1272C45.9472 39.3431 44.7853 38.9523 43.9282 38.611C42.6751 38.1082 41.2683 37.4569 41.2683 35.5734C41.2683 33.8149 42.6751 32.5618 45.1187 32.5618C46.9475 32.5618 48.211 33.1324 48.31 33.1819C48.31 33.1819 48.211 33.4867 48.1746 33.5961C48.0756 33.9452 47.8125 34.8231 46.9814 34.8231C46.3848 34.8231 46.0175 34.5391 45.0953 34.5391C44.2694 34.5391 43.7588 34.8882 43.7588 35.4457C43.7588 36.1439 44.6706 36.4331 45.6866 36.8343C46.8485 37.2928 48.5289 38.1447 48.5289 40.0152C48.5289 42.2947 46.5959 43.1883 44.4075 43.1883Z" fill="#EE7623"/>
<path d="M53.536 29.6597C53.536 30.509 52.8274 31.1967 51.9494 31.1967C51.0715 31.1967 50.3655 30.509 50.3655 29.6597C50.3655 28.8104 51.0741 28.1148 51.9494 28.1148C52.8247 28.1148 53.536 28.8078 53.536 29.6597Z" fill="#EE7623"/>
<path d="M53.2234 32.752H50.6729V42.9538H53.2234V32.752Z" fill="#EE7623"/>
<path d="M65.0924 33.2001C64.9049 33.1324 62.8494 32.5202 60.7913 32.5202C57.7433 32.5202 55.1824 34.3985 55.1824 37.8581C55.1824 41.3178 57.6026 43.2065 60.7913 43.2065C61.4426 43.2065 62.3961 43.1206 62.4873 43.1023V43.7588C62.4873 44.9051 61.4661 46.0722 59.9056 46.0722C58.7176 46.0722 58.2227 45.6423 57.6156 45.6423C56.9513 45.6423 56.7559 46.2129 56.5371 46.5906C56.4616 46.7157 56.2792 47.0543 56.2792 47.0543C56.4511 47.1533 57.9205 48 59.8613 48C62.9276 48 65.0924 45.9367 65.0924 43.058V33.1975V33.2001ZM62.4873 40.927C62.417 40.9479 61.6041 41.0703 60.9502 41.0703C59.1162 41.0703 57.772 39.8641 57.772 37.8581C57.772 35.9981 58.9573 34.6564 60.9502 34.6564C61.5104 34.6564 62.4091 34.7762 62.4873 34.7945V40.927Z" fill="#EE7623"/>
</g>
<defs>
<clipPath id="clip0_583_26599">
<rect width="96.4273" height="48" fill="white"/>
</clipPath>
</defs>
</svg>
